<svg width="683" height="683" viewBox="0 0 683 683" fill="none" xmlns="http://www.w3.org/2000/svg">
<g clip-path="url(#clip0_1669_12)">
<path d="M334.537 362.526C336.792 362.609 339.052 362.667 341.334 362.667C343.448 362.667 345.552 362.62 347.651 362.542C395.401 363.573 442.365 376.208 483.86 399.302C496.729 406.464 512.969 401.839 520.13 388.969C527.292 376.099 522.667 359.859 509.797 352.698C490.693 342.068 470.615 333.307 449.886 326.495C494.042 293.391 522.667 240.641 522.667 181.333C522.667 81.3438 441.318 0 341.334 0C241.344 0 160 81.3438 160 181.333C160 240.677 188.656 293.458 232.86 326.557C192.365 339.885 154.365 360.62 121.104 387.974C60.1304 438.13 17.7345 508.089 1.72933 584.964C-3.2863 609.052 2.72412 633.792 18.2137 652.844C33.6252 671.797 56.4845 682.667 80.922 682.667H289.334C304.057 682.667 316 670.729 316 656C316 641.271 304.057 629.333 289.334 629.333H80.922C69.5366 629.333 62.672 622.979 59.5887 619.193C54.271 612.651 52.2137 604.141 53.9429 595.833C81.6356 462.818 199.021 365.677 334.537 362.526V362.526ZM213.334 181.333C213.334 110.755 270.75 53.3333 341.334 53.3333C411.912 53.3333 469.334 110.755 469.334 181.333C469.334 249.786 415.323 305.854 347.682 309.177C345.563 309.135 343.448 309.109 341.334 309.109C339.25 309.109 337.172 309.141 335.094 309.177C267.401 305.917 213.334 249.823 213.334 181.333V181.333ZM682.667 495.771C682.693 513.583 675.729 530.323 663.068 542.917L613.469 592.24C608.266 597.417 601.464 600 594.667 600C587.818 600 580.969 597.375 575.755 592.135C565.37 581.693 565.417 564.813 575.86 554.427L609.104 521.365H457.985C428.214 521.365 404 545.583 404 575.349C404 605.115 427.922 629.333 457.334 629.333C472.057 629.333 484 641.271 484 656C484 670.729 472.057 682.667 457.334 682.667C428.651 682.667 401.776 671.469 381.667 651.13C361.672 630.911 350.667 604 350.667 575.349C350.667 516.172 398.807 468.031 457.985 468.031H606.656L575.912 437.63C565.443 427.271 565.344 410.385 575.703 399.917C586.057 389.448 602.943 389.349 613.417 399.708L662.938 448.677C675.636 461.234 682.641 477.958 682.667 495.771V495.771Z" fill="#333333"/>
</g>
<defs>
<clipPath id="clip0_1669_12">
<rect width="682.667" height="682.667" fill="white"/>
</clipPath>
</defs>
</svg>